<?xml version="1.0" encoding="UTF-8"?>
<!-- Generator: Adobe Illustrator 19.1.0, SVG Export Plug-In . SVG Version: 6.00 Build 0)  -->
<svg version="1.1" id="horizontal" xmlns="http://www.w3.org/2000/svg" xmlns:xlink="http://www.w3.org/1999/xlink" x="0px" y="0px" style="enable-background:new 0 0 500 120;" xml:space="preserve" viewBox="0 0 120 120">
<g id="saltStack_x5F_icon_x5F_thicker_2_">
	<g>
		<path d="M49.4,1.7c1.7-1.2,3.2-1,5,0c5,3,10,5.9,15.1,8.7c0.5,0.3,1.4,0.1,1.9-0.1c5-2.8,9.9-5.6,14.8-8.6c1.7-1,3.1-1.2,4.8-0.1    c7.5,4.4,15.1,8.8,22.7,13.1c1.6,0.9,2.3,2.1,2.3,3.9c-0.1,8.8-0.1,17.6,0,26.4c0,1.7-0.6,2.8-2.1,3.7c-4.5,2.5-8.9,5.1-13.4,7.7    c3.2,2.6,3.2,2.6,3.2,6.7c0,8.2,0,16.4,0,24.7c0,1.6-0.6,2.5-2,3.3c-15.6,9-31.2,17.9-46.7,27c-2.2,1.3-3.8,1.3-6,0    c-15.5-9.1-31.1-18.1-46.7-27c-1.5-0.8-2.1-2-2.1-3.6c0-18.3,0-36.7,0-55c0-1.6,0.6-2.7,2-3.5L49.4,1.7z M49.3,63.1    c0-1.1-0.3-1.7-1.2-2.2L5.4,36.4l0,48.9c0,1.2,0.4,1.8,1.4,2.4l42.3,24.4L49.3,63.1z M96.9,87.6c1-0.6,1.4-1.1,1.4-2.3l-0.1-20.5    L78.4,76.1c-2.8,1.6-4.7,0.5-4.7-2.7c0-7,0-14,0-21c0-0.5,0-1.1-0.1-1.8L55.6,61c-0.9,0.5-1.1,1.2-1.1,2.1l0,49L96.9,87.6z     M50.7,56.4c0.8,0.5,1.4,0.5,2.2,0c3.4-2.1,6.9-4,10.4-6c2.5-1.4,4.9-2.9,7.6-4.5c-1-0.6-1.8-1.1-2.6-1.5    c-5.9-3.4-11.7-6.8-17.6-10.2c-2.2-1.3-2.2-3.7,0-5c3.1-1.8,6.1-3.6,9.2-5.3c1-0.5,1.5-1.2,1.3-2.3c-0.1-0.5,0-0.9,0-1.4    c-0.3-2.6,0.1-4.8,2.9-5.9c0.1,0,0.2-0.2,0.3-0.4c-3.9-2.2-7.8-4.4-11.6-6.7c-1-0.6-1.6-0.5-2.5,0L8.2,31.7L50.7,56.4z     M107.8,17.6c-0.4-0.3-0.5-0.4-0.6-0.4c-5.9-3.4-11.8-6.8-17.7-10.2c-0.4-0.2-1.3-0.2-1.8,0.1c-5.3,3-10.5,6-15.7,9    c-0.7,0.4-1.4,0.9-2.4,1.4c0.4,0.2,0.5,0.3,0.6,0.4c5.9,3.4,11.8,6.8,17.7,10.2c0.4,0.2,1.3,0.1,1.8-0.1c2.6-1.4,5.1-2.9,7.6-4.3    C100.7,21.7,104.1,19.7,107.8,17.6z M109.7,44.8c0.5-0.3,0.8-1.1,0.8-1.7c0.1-6.4,0-12.8,0-19.3c0-0.4-0.1-0.8-0.1-1.2    c-0.3,0-0.4,0-0.5,0c-5.9,3.4-11.8,6.8-17.7,10.3c-0.5,0.3-0.8,1.1-0.8,1.7l0,20.7L109.7,44.8z M66.8,22.3c0,4.8,0,9.2,0,13.7    c0,1,0.4,1.6,1.2,2c3.1,1.8,6.2,3.6,9.4,5.4c1.3,0.7,1.8,1.7,1.8,3.1c0,1.3,0,2.7,0,4c0,0.4,0.1,1,0.4,1.2c2,1.3,4.1,2.4,6.3,3.7    c0.1-0.5,0.2-0.7,0.2-0.9c0-6.7,0-13.5,0-20.2c0-0.5-0.5-1.2-1-1.5L66.8,22.3z M79.3,57.8c0,4,0,7.7,0,11.7    c5.5-3.2,10.8-6.2,16-9.3c-0.1-0.2-0.2-0.4-0.3-0.5c-0.4,0.1-0.8,0.3-1.1,0.4c-1.1,0.6-2.2,1.2-3.2,1.9c-1.3,0.9-2.6,0.9-4,0.1    C84.3,60.6,81.8,59.3,79.3,57.8z M57.2,31.7c1.5,0.9,2.7,1.6,4,2.3c0-1.7,0-3.1,0-4.7C59.9,30.2,58.7,30.9,57.2,31.7z"/>
	</g>
</g>









</svg>